<svg width="1200" height="800" viewBox="0 0 1200 800" fill="none" xmlns="http://www.w3.org/2000/svg">
<path d="M86.2617 375.383C81.4617 375.383 80.2617 365.383 80.2617 360.383L93.2617 361.883C92.9284 366.383 91.0617 375.383 86.2617 375.383Z" fill="#0049FF" fill-opacity="0.5"/>
<path d="M211.762 383.383C206.162 383.383 204.095 372.883 202.762 367.383H218.262C217.762 373.883 217.362 383.383 211.762 383.383Z" fill="#0049FF" fill-opacity="0.5"/>
<path d="M86.2617 375.383C81.4617 375.383 80.2617 365.383 80.2617 360.383L93.2617 361.883C92.9284 366.383 91.0617 375.383 86.2617 375.383Z" stroke="#0049FF" stroke-width="3"/>
<path d="M211.762 383.383C206.162 383.383 204.095 372.883 202.762 367.383H218.262C217.762 373.883 217.362 383.383 211.762 383.383Z" stroke="#0049FF" stroke-width="3"/>
</svg>
