<svg viewBox="0 0 1200 800" fill="none" xmlns="http://www.w3.org/2000/svg">
<path d="M536.262 382.883C522.262 370.083 508.095 347.216 502.762 337.383C554.762 344.983 681.095 359.549 737.762 365.883L786.762 413.383L740.762 432.383L723.762 430.383C676.928 421.716 580.962 403.883 571.762 401.883C560.262 399.383 553.762 398.883 536.262 382.883Z" fill="#0049FF" fill-opacity="0.5"/>
<path d="M1061.26 413.883C1065.26 407.483 1073.6 384.216 1077.26 373.383C1107.76 368.883 1117.26 363.883 1127.76 359.883C1132.76 369.383 1145.76 394.883 1146.26 402.883C1146.76 410.883 1137.76 418.383 1124.26 426.383C1113.46 432.783 1102.43 435.383 1098.26 435.883L1069.76 415.383C1068.93 414.883 1066.06 413.883 1061.26 413.883Z" fill="#0049FF" fill-opacity="0.5"/>
<path d="M536.262 382.883C522.262 370.083 508.095 347.216 502.762 337.383C554.762 344.983 681.095 359.549 737.762 365.883L786.762 413.383L740.762 432.383L723.762 430.383C676.928 421.716 580.962 403.883 571.762 401.883C560.262 399.383 553.762 398.883 536.262 382.883Z" stroke="#0049FF" stroke-width="3"/>
<path d="M1061.26 413.883C1065.26 407.483 1073.6 384.216 1077.26 373.383C1107.76 368.883 1117.26 363.883 1127.76 359.883C1132.76 369.383 1145.76 394.883 1146.26 402.883C1146.76 410.883 1137.76 418.383 1124.26 426.383C1113.46 432.783 1102.43 435.383 1098.26 435.883L1069.76 415.383C1068.93 414.883 1066.06 413.883 1061.26 413.883Z" stroke="#0049FF" stroke-width="3"/>
</svg>
