<svg viewBox="0 0 1200 800" fill="none" xmlns="http://www.w3.org/2000/svg">
<path d="M735.262 364.711C672.862 359.111 527.762 339.216 472.262 331.383C474.928 326.883 525.489 309.587 542.262 306.711C558.762 303.883 609.262 306.883 620.262 309.883C631.262 312.883 673.762 306.711 685.762 306.711C730.884 306.711 885.762 306.383 948.762 309.883C999.162 312.683 1034.93 317.211 1045.76 320.711C1055.76 320.045 1079.26 319.911 1093.26 324.711C1110.76 330.711 1120.76 347.211 1128.76 360.711C1120.76 367.711 1096.76 368.711 1087.76 371.711C1080.56 374.111 1062.43 375.711 1054.26 376.211C1003.1 375.211 891.062 372.911 852.262 371.711C803.762 370.211 813.262 371.711 735.262 364.711Z" fill="#0049FF" fill-opacity="0.5" stroke="#0049FF" stroke-width="3"/>
</svg>
