<svg viewBox="0 0 1200 800" fill="none" xmlns="http://www.w3.org/2000/svg">
<path d="M536.262 382.883C522.262 370.083 508.095 347.216 502.762 337.383C554.762 344.983 681.095 359.549 737.762 365.883L786.762 413.383L740.762 432.383L723.762 430.383C676.928 421.716 580.962 403.883 571.762 401.883C560.262 399.383 553.762 398.883 536.262 382.883Z" stroke="#0049FF" stroke-width="3"/>
<path d="M1061.26 413.883C1065.26 407.483 1073.6 384.216 1077.26 373.383C1107.76 368.883 1117.26 363.883 1127.76 359.883C1132.76 369.383 1145.76 394.883 1146.26 402.883C1146.76 410.883 1137.76 418.383 1124.26 426.383C1113.46 432.783 1102.43 435.383 1098.26 435.883L1069.76 415.383C1068.93 414.883 1066.06 413.883 1061.26 413.883Z" stroke="#0049FF" stroke-width="3"/>
<path d="M591.82 148.883C492.802 143.283 406.512 147.258 368.262 148.633H361.699C361.699 148.633 358.512 141.633 353.762 137.633C362.673 137.633 470.028 133.279 532.409 135.883C592.315 138.383 664.102 146.383 697.273 151.883C723.81 156.283 759.489 165.383 774.012 169.383C754.538 164.883 690.837 154.483 591.82 148.883Z" stroke="#0049FF" stroke-width="3"/>
<path d="M86.2617 375.383C81.4617 375.383 80.2617 365.383 80.2617 360.383L93.2617 361.883C92.9284 366.383 91.0617 375.383 86.2617 375.383Z" stroke="#0049FF" stroke-width="3"/>
<path d="M211.762 383.383C206.162 383.383 204.095 372.883 202.762 367.383H218.262C217.762 373.883 217.362 383.383 211.762 383.383Z" stroke="#0049FF" stroke-width="3"/>
<path d="M787.762 170.883C802.762 177.883 842.562 198.983 881.762 227.383C920.962 255.783 947.428 279.883 955.762 288.383M336.762 144.445C329.962 143.645 325.928 150.778 324.762 154.445C338.262 162.445 347.262 182.445 352.262 190.445C357.262 198.445 372.762 231.445 375.262 250.445C377.262 265.645 373.428 288.778 371.262 298.445L422.762 289.883C426.762 284.216 427.262 277.983 433.262 274.383C414.262 269.383 404.428 250.778 401.762 243.445C392.595 225.612 372.262 186.245 364.262 171.445C354.262 152.945 345.262 145.445 336.762 144.445Z" stroke="#0049FF" stroke-width="3"/>
<path d="M446.012 375.633L429.012 402.633C438.678 403.299 458.512 422.383 477.762 455.883C511.362 417.483 540.095 398.549 550.262 393.883C540.095 387.383 516.362 366.783 502.762 336.383C489.362 334.083 476.845 332.091 472.262 331.383C472.262 331.383 453.178 366.633 446.012 375.633Z" stroke="#0049FF" stroke-width="3"/>
<path d="M735.262 364.711C672.862 359.111 527.762 339.216 472.262 331.383C474.928 326.883 525.489 309.587 542.262 306.711C558.762 303.883 609.262 306.883 620.262 309.883C631.262 312.883 673.762 306.711 685.762 306.711C730.884 306.711 885.762 306.383 948.762 309.883C999.162 312.683 1034.93 317.211 1045.76 320.711C1055.76 320.045 1079.26 319.911 1093.26 324.711C1110.76 330.711 1120.76 347.211 1128.76 360.711C1120.76 367.711 1096.76 368.711 1087.76 371.711C1080.56 374.111 1062.43 375.711 1054.26 376.211C1003.1 375.211 891.062 372.911 852.262 371.711C803.762 370.211 813.262 371.711 735.262 364.711Z" stroke="#0049FF" stroke-width="3"/>
</svg>
