<svg viewBox="0 0 1200 800" fill="none" xmlns="http://www.w3.org/2000/svg">
<path d="M336.762 144.445C329.962 143.645 325.928 150.778 324.762 154.445C338.262 162.445 347.262 182.445 352.262 190.445C357.262 198.445 372.762 231.445 375.262 250.445C377.262 265.645 373.428 288.778 371.262 298.445L422.762 289.883C426.762 284.216 427.262 277.983 433.262 274.383C414.262 269.383 404.428 250.778 401.762 243.445C392.595 225.612 372.262 186.245 364.262 171.445C354.262 152.945 345.262 145.445 336.762 144.445Z" fill="#0049FF" fill-opacity="0.5"/>
<path d="M787.762 170.883C802.762 177.883 842.562 198.983 881.762 227.383C920.962 255.783 947.428 279.883 955.762 288.383M336.762 144.445C329.962 143.645 325.928 150.778 324.762 154.445C338.262 162.445 347.262 182.445 352.262 190.445C357.262 198.445 372.762 231.445 375.262 250.445C377.262 265.645 373.428 288.778 371.262 298.445L422.762 289.883C426.762 284.216 427.262 277.983 433.262 274.383C414.262 269.383 404.428 250.778 401.762 243.445C392.595 225.612 372.262 186.245 364.262 171.445C354.262 152.945 345.262 145.445 336.762 144.445Z" stroke="#0049FF" stroke-width="3"/>
</svg>
