<svg viewBox="0 0 36 36" fill="none" xmlns="http://www.w3.org/2000/svg">
<path d="M18.2222 14.5486C16.1978 14.5486 14.5457 16.2007 14.5457 18.2252C14.5457 20.2497 16.1978 21.9018 18.2222 21.9018C20.2466 21.9018 21.8987 20.2497 21.8987 18.2252C21.8987 16.2007 20.2466 14.5486 18.2222 14.5486ZM29.249 18.2252C29.249 16.7027 29.2628 15.194 29.1773 13.6743C29.0918 11.9091 28.6891 10.3425 27.3983 9.05171C26.1048 7.75815 24.541 7.35823 22.7758 7.27273C21.2533 7.18723 19.7447 7.20102 18.225 7.20102C16.7025 7.20102 15.1939 7.18723 13.6742 7.27273C11.909 7.35823 10.3424 7.76091 9.05168 9.05171C7.75814 10.3453 7.35823 11.9091 7.27273 13.6743C7.18723 15.1968 7.20102 16.7055 7.20102 18.2252C7.20102 19.7449 7.18723 21.2564 7.27273 22.7761C7.35823 24.5413 7.7609 26.1079 9.05168 27.3987C10.3452 28.6922 11.909 29.0922 13.6742 29.1777C15.1966 29.2632 16.7053 29.2494 18.225 29.2494C19.7474 29.2494 21.2561 29.2632 22.7758 29.1777C24.541 29.0922 26.1075 28.6895 27.3983 27.3987C28.6918 26.1051 29.0918 24.5413 29.1773 22.7761C29.2655 21.2564 29.249 19.7477 29.249 18.2252V18.2252ZM18.2222 23.8821C15.0918 23.8821 12.5654 21.3557 12.5654 18.2252C12.5654 15.0947 15.0918 12.5683 18.2222 12.5683C21.3526 12.5683 23.879 15.0947 23.879 18.2252C23.879 21.3557 21.3526 23.8821 18.2222 23.8821ZM24.1107 13.6578C23.3798 13.6578 22.7896 13.0675 22.7896 12.3366C22.7896 11.6057 23.3798 11.0155 24.1107 11.0155C24.8416 11.0155 25.4318 11.6057 25.4318 12.3366C25.432 12.5102 25.398 12.6821 25.3317 12.8425C25.2654 13.0028 25.1681 13.1486 25.0453 13.2713C24.9226 13.394 24.7769 13.4913 24.6165 13.5576C24.4561 13.624 24.2842 13.658 24.1107 13.6578V13.6578Z" fill="#999999"/>
</svg>
