<svg viewBox="0 0 177 30" fill="none" xmlns="http://www.w3.org/2000/svg">
<path d="M103.654 14.4072V9.62207L125.843 9.62207V14.4072H117.641V29.3273L111.856 29.3273V14.4072H103.654Z" fill="white"/>
<path d="M128.072 29.3061V9.64355L150.33 9.64355V14.3754L133.842 14.3754V17.1729L146.645 17.1729V21.7555L133.842 21.7555V24.5903L150.251 24.5903V29.3061L128.072 29.3061Z" fill="white"/>
<path d="M170.271 22.1656C170.008 22.5812 169.676 22.9596 169.265 23.3006C168.112 24.2544 166.496 24.7287 164.417 24.7287C162.337 24.7287 160.721 24.2544 159.568 23.3006C158.415 22.3468 157.842 21.0732 157.842 19.4747C157.842 17.8761 158.415 16.6025 159.568 15.6487C160.721 14.6949 162.332 14.2207 164.417 14.2207C166.496 14.2207 168.112 14.6949 169.265 15.6487C169.671 15.9844 170.002 16.3628 170.265 16.7784H176.004C175.551 14.9453 174.609 13.4267 173.166 12.2331C171.071 10.4906 168.154 9.62207 164.422 9.62207C160.69 9.62207 157.773 10.496 155.678 12.2331C153.583 13.9755 152.53 16.3894 152.53 19.4747C152.53 22.5599 153.577 24.9738 155.678 26.7162C157.773 28.4587 160.69 29.3273 164.422 29.3273C168.154 29.3273 171.071 28.4534 173.166 26.7162C174.609 25.5173 175.556 24.004 176.004 22.1656H170.271V22.1656Z" fill="white"/>
<path d="M63.7987 10.5926C67.2152 10.5926 69.8843 11.3759 71.8058 12.9478C73.7273 14.5198 74.6854 16.6938 74.6854 19.4754C74.6854 22.2569 73.7273 24.431 71.8058 26.0029C69.8843 27.5749 67.2152 28.3582 63.7987 28.3582C60.3821 28.3582 57.713 27.5749 55.7915 26.0029C53.87 24.431 52.9119 22.2569 52.9119 19.4754C52.9119 16.6938 53.87 14.5198 55.7915 12.9478C57.713 11.3812 60.3821 10.5926 63.7987 10.5926ZM63.7987 9.64941C60.1926 9.64941 57.3077 10.5073 55.2388 12.2071C53.0962 13.9603 52.0117 16.4061 52.0117 19.4807C52.0117 22.5553 53.0962 25.0011 55.2388 26.7542C57.3129 28.4487 60.1926 29.312 63.7987 29.312C67.4048 29.312 70.2896 28.4541 72.3585 26.7542C74.5011 25.0011 75.5856 22.5553 75.5856 19.4807C75.5856 16.4061 74.5011 13.9603 72.3585 12.2071C70.2896 10.5073 67.4048 9.64941 63.7987 9.64941Z" fill="white"/>
<path d="M101.351 9.6416V29.3148H91.2644L84.4102 15.2953V29.3148H77.7876V28.3717H83.4784V14.3787H85.0051L91.8435 28.3717H100.419V10.5901H96.0918V24.5937H94.5704L87.7267 10.5901L77.7876 10.5901V9.6416L88.3058 9.6416L95.16 23.6665V9.6416H101.351Z" fill="white"/>
<path d="M21.5839 19.1297C22.979 18.2345 23.9003 16.4707 23.9003 14.6856C23.9003 11.9094 21.6682 9.65011 18.9254 9.65011L5.88557 9.65011L5.88557 0L5.42231 0C2.43214 0 0 2.46182 0 5.48847L0 23.8402C0 23.8402 0 23.8402 0 23.8455C0 23.8935 0 23.9468 0 24.0001C0.0789657 26.9414 2.55322 29.334 5.52233 29.334L21.0522 29.334C23.8897 29.334 26.1955 27.0001 26.1955 24.1279C26.1955 21.4317 24.1688 19.4015 21.5839 19.1297ZM4.95378 0.969807L4.95378 9.5542C2.69536 9.31974 0.937059 7.83306 0.937059 5.48847C0.937059 3.14388 2.69536 1.20959 4.95378 0.969807ZM0.937059 8.18474C1.82674 9.5169 3.28497 10.3588 4.95378 10.508L4.95378 18.3784C3.65348 18.4903 2.4532 19.0604 1.5372 20.0196C1.31083 20.254 1.11078 20.4992 0.937059 20.7656L0.937059 8.18474ZM21.0522 28.3802L5.52233 28.3802C3.0586 28.3802 1.00023 26.4033 0.937059 23.9681C0.937059 23.9255 0.937059 23.8828 0.937059 23.8402C0.937059 22.6466 1.38453 21.5276 2.20577 20.675C3.0586 19.7851 4.20097 19.3002 5.42231 19.3002H5.89084L5.89084 10.5986L18.9307 10.5986C21.1575 10.5986 22.9685 12.4316 22.9685 14.6856C22.9685 16.9396 21.1628 18.9645 18.936 18.9645V19.961L21.0575 20.0462C23.0474 19.961 25.269 21.7674 25.269 24.1173C25.2637 26.4725 23.3738 28.3802 21.0522 28.3802Z" fill="white"/>
<path d="M28.4579 29.3255V28.377L33.9381 28.3663V21.7375H38.0443L44.0983 28.3717H49.7049L43.0665 21.7589L44.0194 21.631C47.5675 21.1621 49.2943 19.4356 49.2943 16.3503C49.2943 14.4107 48.6467 13.004 47.3149 12.0555C45.9461 11.0857 44.1825 10.5901 42.0715 10.5901L26.21 10.5901V9.6416L42.0663 9.6416C44.3721 9.6416 46.3199 10.1904 47.8466 11.2775C49.4259 12.4018 50.2261 14.107 50.2261 16.345C50.2261 19.6541 48.4888 21.6949 45.0564 22.4089L51.9844 29.3095H43.6877L37.6337 22.6754H34.8699V29.3095L28.4579 29.3255Z" fill="white"/>
</svg>
