<svg viewBox="0 0 36 36" fill="none" xmlns="http://www.w3.org/2000/svg">
<path d="M18.0006 5.84961C14.4624 5.84961 11.584 8.66284 11.584 12.1213C11.584 15.5795 14.4624 18.3914 18.0006 18.3914C21.5387 18.3914 24.4156 15.5795 24.4156 12.1213C24.4156 8.66284 21.5387 5.84961 18.0006 5.84961ZM18.0006 9.52423C19.465 9.52423 20.6558 10.6898 20.6558 12.1213C20.6558 13.5521 19.465 14.7168 18.0006 14.7168C16.5359 14.7168 15.3439 13.5522 15.3439 12.1213C15.3439 10.6898 16.5359 9.52423 18.0006 9.52423ZM12.7104 18.6048C12.0756 18.5952 11.4514 18.9011 11.0892 19.4652C10.5358 20.3246 10.8009 21.4587 11.6781 21.9992C12.8383 22.7108 14.0973 23.2156 15.4029 23.5066L11.8171 27.0134C11.0831 27.7313 11.0837 28.894 11.8179 29.612C12.1859 29.9703 12.6658 30.1496 13.147 30.1496C13.6277 30.1496 14.1093 29.97 14.4762 29.6112L17.9991 26.1659L21.5251 29.6112C22.2585 30.3289 23.4478 30.3289 24.1826 29.6112C24.9169 28.8938 24.9169 27.7298 24.1826 27.0134L20.5952 23.5074C21.9012 23.2164 23.1606 22.7113 24.32 21.9992C25.1989 21.4587 25.4644 20.3234 24.9112 19.4652C24.3573 18.6056 23.1977 18.3467 22.3182 18.8881C19.6913 20.5033 16.3067 20.5022 13.6807 18.8881C13.3784 18.702 13.043 18.6099 12.7104 18.6048Z" fill="#999999"/>
</svg>
