<svg viewBox="0 0 36 36" fill="none" xmlns="http://www.w3.org/2000/svg">
<path d="M3.71573 8.54984C2.90649 8.54984 2.25 9.2215 2.25 10.0502V27.2994C2.25 28.128 2.90659 28.7998 3.71573 28.7998H32.2843C33.0935 28.7998 33.75 28.1281 33.75 27.2994V10.0502C33.75 9.2216 33.0934 8.5498 32.2843 8.5498H3.71569L3.71573 8.54984ZM12.579 10.9874C14.3771 10.9874 16.0284 11.6277 17.3247 12.6974C16.2341 13.6963 15.4206 15.0087 15.0193 16.4963H15.6483C16.0188 15.2691 16.6917 14.1765 17.5787 13.31C18.4656 14.1765 19.1386 15.2691 19.509 16.4963H20.1479C19.741 15.0165 18.9264 13.712 17.8366 12.7196C19.1353 11.6363 20.7932 10.9873 22.599 10.9873C26.7661 10.9873 30.1442 14.4457 30.1442 18.7121C30.1442 22.9785 26.7661 26.4368 22.599 26.4368C20.7632 26.4368 19.0798 25.7661 17.7716 24.6502C18.9418 23.6081 19.8046 22.211 20.1991 20.6216H19.5838C19.2335 21.9556 18.5284 23.1421 17.5786 24.0699C16.6289 23.1421 15.9248 21.9556 15.5745 20.6216H14.9887C15.3856 22.188 16.237 23.5655 17.3896 24.5979C16.0838 25.6999 14.4071 26.3623 12.579 26.3623C8.41187 26.3623 5.03381 22.9205 5.03381 18.6748C5.03381 14.4291 8.41187 10.9874 12.579 10.9874ZM22.033 16.4177C21.1264 16.4177 20.2444 17.229 20.2444 18.7524C20.2444 19.7626 20.7208 20.4292 21.6579 20.4292C21.9229 20.4292 22.345 20.3183 22.345 20.3183L22.4848 19.4356C22.4848 19.4356 22.0995 19.6351 21.8351 19.6351C21.278 19.6351 21.0545 19.1965 21.0545 18.7252C21.0545 17.7691 21.5338 17.2429 22.0674 17.2429C22.4676 17.2429 22.789 17.4747 22.789 17.4747L22.9169 16.6162C22.9169 16.6162 22.4412 16.4177 22.0329 16.4177H22.033ZM29.655 16.4922L28.8665 16.4942L28.6972 17.5563C28.6972 17.5563 28.4008 17.1442 27.9372 17.1442C27.2165 17.1442 26.6162 18.0206 26.6162 19.0285C26.6162 19.6791 26.9357 20.3173 27.5907 20.3173C28.0619 20.3173 28.3231 19.9858 28.3231 19.9858L28.2887 20.2689H29.0545L29.655 16.4922ZM7.07145 16.5033L6.44343 20.2891H7.20041L7.67883 17.4344L7.74971 20.2891H8.2911L9.30108 17.4344L8.85318 20.2891H9.65741L10.2776 16.5033H9.03333L8.25862 18.826L8.21827 16.5033H7.07148L7.07145 16.5033ZM14.9799 16.7492C14.9628 16.7667 14.5222 19.3677 14.5222 19.6845C14.5222 20.1535 14.779 20.363 15.1404 20.3596C15.3993 20.3574 15.5998 20.2908 15.6926 20.2629C15.7023 20.2602 15.7212 20.2548 15.7212 20.2548L15.8186 19.5777C15.7656 19.5777 15.6876 19.6009 15.6188 19.6009C15.349 19.6009 15.3191 19.4539 15.3363 19.3449L15.5538 17.9634H15.9643L16.0637 17.2147H15.6769L15.7556 16.7492H14.9799V16.7492ZM24.1297 17.1301C23.6013 17.1301 23.1965 17.3084 23.1965 17.3084L23.0843 18.0037C23.0843 18.0037 23.4186 17.8616 23.924 17.8616C24.2109 17.8616 24.421 17.8952 24.421 18.1397C24.421 18.2883 24.3955 18.3433 24.3955 18.3433C24.3955 18.3433 24.1686 18.3232 24.0637 18.3232C23.3974 18.3232 22.6974 18.6221 22.6974 19.5213C22.6974 20.2297 23.157 20.3919 23.4416 20.3919C23.9852 20.3919 24.2197 20.0222 24.2321 20.0211L24.2065 20.3294H24.8847L25.1879 18.1045C25.188 17.1604 24.4025 17.1301 24.1297 17.1301V17.1301ZM11.4066 17.1341C10.8764 17.1341 10.4695 17.3125 10.4695 17.3125L10.3573 18.0078C10.3573 18.0078 10.6928 17.8657 11.1999 17.8657C11.4879 17.8657 11.699 17.8994 11.699 18.1438C11.699 18.2922 11.6734 18.3473 11.6734 18.3473C11.6734 18.3473 11.4459 18.3272 11.3407 18.3272C10.6719 18.3272 9.96948 18.6256 9.96948 19.5243C9.96948 20.2324 10.4299 20.3949 10.7156 20.3949C11.2612 20.3949 11.4965 20.0252 11.509 20.0241L11.4834 20.3324H12.1646L12.4688 18.1085C12.4688 17.165 11.6804 17.1341 11.4066 17.1341V17.1341ZM13.8124 17.1341C13.243 17.1341 12.6647 17.3694 12.6647 18.173C12.6647 19.0836 13.6284 18.9916 13.6284 19.3751C13.6284 19.6311 13.3594 19.6523 13.152 19.6523C12.7929 19.6523 12.4699 19.5253 12.4688 19.5313L12.3654 20.2266C12.384 20.2325 12.584 20.3244 13.2297 20.3244C13.4031 20.3244 14.3942 20.3694 14.3942 19.3127C14.3942 18.3247 13.4768 18.5205 13.4768 18.1236C13.4768 17.926 13.6257 17.8637 13.8991 17.8637C14.0076 17.8637 14.4257 17.8989 14.4257 17.8989L14.5222 17.1966C14.5222 17.1967 14.2524 17.1341 13.8125 17.1341H13.8124ZM17.3719 17.1341C16.5807 17.1343 15.9948 18.0053 15.9948 18.9892C15.9948 20.1249 16.7288 20.3949 17.3542 20.3949C17.9315 20.3949 18.186 20.2629 18.186 20.2629L18.3238 19.488C18.3238 19.488 17.8847 19.6855 17.4881 19.6855C16.6431 19.6855 16.7912 19.0416 16.7912 19.0416H18.3908C18.3908 19.0416 18.4942 18.5212 18.4942 18.309C18.4942 17.7796 18.236 17.1341 17.372 17.1341H17.3719ZM20.2375 17.1674C19.881 17.1674 19.6163 17.6581 19.6163 17.6581L19.6872 17.2077H18.9469L18.4499 20.3173H19.2679C19.4995 18.9894 19.5418 17.9112 20.0947 18.1085C20.1915 17.5945 20.2854 17.396 20.391 17.1785C20.391 17.1785 20.3414 17.1674 20.2375 17.1674H20.2375ZM26.8652 17.1674C26.5088 17.1674 26.2441 17.6581 26.2441 17.6581L26.315 17.2077H25.5748L25.0776 20.3173H25.8947C26.1264 18.9894 26.1698 17.9112 26.7225 18.1085C26.8195 17.5945 26.9133 17.396 27.0188 17.1785C27.0188 17.1785 26.9692 17.1674 26.8653 17.1674H26.8652ZM17.368 17.8354C17.8174 17.8354 17.7352 18.3547 17.7352 18.3967H16.8502C16.8502 18.3431 16.934 17.8354 17.368 17.8354H17.368ZM28.0613 17.8959C28.3473 17.8958 28.4944 18.0936 28.4944 18.5589C28.4944 18.9812 28.2864 19.5454 27.8555 19.5454C27.5696 19.5454 27.4352 19.3037 27.4352 18.9247C27.4352 18.305 27.7122 17.8959 28.0613 17.8959H28.0613ZM24.1307 18.9539C24.2473 18.9541 24.2715 18.9657 24.2911 18.9711C24.2883 18.9706 24.2878 18.9712 24.299 18.9731C24.3138 19.1116 24.2173 19.7611 23.7507 19.7611C23.5101 19.7611 23.4485 19.5653 23.4485 19.4497C23.4485 19.2244 23.5631 18.9539 24.1307 18.9539ZM11.4076 18.957C11.5402 18.9571 11.5546 18.9723 11.577 18.9761C11.5918 19.1145 11.4949 19.7631 11.0267 19.7631C10.7852 19.7631 10.7225 19.5682 10.7225 19.4527C10.7225 19.2275 10.8378 18.957 11.4076 18.957Z" fill="#999999"/>
</svg>
