<svg viewBox="0 0 36 36" fill="none" xmlns="http://www.w3.org/2000/svg">
<path fill-rule="evenodd" clip-rule="evenodd" d="M2.25 10.0502C2.25 9.2215 2.90649 8.54984 3.71572 8.54984L32.2843 8.5498C33.0934 8.5498 33.75 9.2216 33.75 10.0502V27.2994C33.75 28.1281 33.0935 28.7998 32.2843 28.7998H3.71572C2.90659 28.7998 2.25 28.128 2.25 27.2994V10.0502ZM8.3851 15.8382C8.37289 15.8384 8.36158 15.8386 8.35126 15.8386L6.13553 15.8387V22.4627H8.27663V18.5562H8.42021L9.61377 22.4627H11.2247L12.4182 18.559H12.5618V22.4627H14.7029V15.8387L12.6022 15.8387C12.5859 15.8387 12.5682 15.8384 12.5491 15.8382C12.2499 15.834 11.6329 15.8254 11.3769 16.7012C11.2178 17.2455 10.9255 18.2627 10.5 19.7529H10.3384C9.94165 18.3394 9.6525 17.3222 9.47097 16.7012C9.21454 15.8239 8.62592 15.834 8.3851 15.8382ZM17.7775 19.7452V15.8387H15.5917V22.4627H17.6636C17.6636 22.4627 18.2928 22.4049 18.5746 21.7685L19.998 18.5562H20.1688V22.4627H22.3546V15.8387H20.2827C20.2827 15.8387 19.682 15.8936 19.4002 16.5329L17.9483 19.7452H17.7775ZM27.5873 20.4895C28.6474 20.4895 29.6049 19.8623 29.9098 18.9865H23.2165V22.4627H25.295V20.4895H27.5873ZM23.1075 15.8387H27.6876C29.4499 15.8387 30.3017 17.3502 30.0542 18.5759H25.7663C24.4693 18.5759 23.2165 17.3134 23.1075 15.8387Z" fill="#999999"/>
</svg>
