<svg viewBox="0 0 36 36" fill="none" xmlns="http://www.w3.org/2000/svg">
<path fill-rule="evenodd" clip-rule="evenodd" d="M2.25 10.0502C2.25 9.2215 2.90649 8.54984 3.71572 8.54984L32.2843 8.5498C33.0934 8.5498 33.75 9.2216 33.75 10.0502V27.2994C33.75 28.1281 33.0935 28.7998 32.2843 28.7998H3.71572C2.90659 28.7998 2.25 28.128 2.25 27.2994V10.0502ZM21.3479 15.263C21.8842 15.2592 22.4169 15.3538 22.9208 15.5423L22.963 15.5323L22.717 16.9644L22.5544 16.8898C22.1385 16.7107 21.6904 16.6238 21.2395 16.635C20.5621 16.635 20.2379 16.9288 20.2379 17.2036C20.2379 17.5141 20.6162 17.7188 21.2265 18.0248C22.2303 18.4966 22.7072 19.0675 22.692 19.823C22.6779 21.1928 21.4726 22.0841 19.6288 22.0841C18.844 22.0708 18.0841 21.9161 17.6625 21.7358L17.9085 20.2537L18.1242 20.3571C18.7063 20.6053 19.0846 20.7043 19.7773 20.7043C20.2813 20.7043 20.8233 20.504 20.8276 20.0623C20.8298 19.7718 20.6011 19.5671 19.9171 19.2422C19.2505 18.9262 18.3692 18.3931 18.38 17.4473C18.3887 16.1599 19.6136 15.263 21.3479 15.263ZM26.0664 15.3832H27.4214L28.8414 21.9918H27.2154C27.2154 21.9918 27.0528 21.2329 26.9997 21.0003L24.7494 20.9981L24.3808 21.9918H22.537L25.1429 15.9318C25.3272 15.5022 25.6448 15.3832 26.0664 15.3832ZM17.6429 15.3275H15.8858V15.3253L14.7889 21.9395H16.5438L17.6429 15.3275ZM11.6074 19.8898L11.4253 18.9718H11.4242V18.9751L10.8064 15.9384C10.7034 15.5178 10.3945 15.3943 10.0108 15.3787H7.1827L7.15886 15.5178C7.75801 15.6631 8.33756 15.8832 8.88452 16.1732C8.96373 16.2234 9.02146 16.3025 9.04603 16.3947L10.5636 21.9829H12.4204L15.1856 15.3832H13.3244L11.6074 19.8898ZM25.2539 19.645H26.7135L26.3071 17.7377L26.1867 17.1669C26.1285 17.3294 26.0429 17.5577 25.9932 17.6903C25.9669 17.7603 25.9507 17.8036 25.9537 17.7967L25.2539 19.645Z" fill="#999999"/>
</svg>
