<svg viewBox="0 0 36 36" fill="none" xmlns="http://www.w3.org/2000/svg">
<path d="M16.4412 10.8004C17.3415 10.7913 18.2221 10.8885 18.6517 10.9005C20.2443 10.9451 20.5255 11.7291 20.5052 12.374C20.4754 13.3184 19.8511 17.3134 21.0079 17.7031C22.6934 16.8258 23.8237 14.101 24.6468 12.374C25.0632 11.5005 24.9974 11.4571 25.9569 11.4559L29.7686 11.4502C30.6866 11.4491 30.6507 11.4178 30.9448 11.7827C31.6287 12.6315 28.7866 16.1621 27.8686 17.1382C26.1746 18.9397 27.1629 19.6374 27.4358 19.8849C28.7 21.0323 29.9216 22.222 30.6808 23.3193C31.2844 24.1916 31.0351 25.0038 30.2674 25.0345L26.1801 25.1989C24.8237 25.2532 22.7147 22.8866 22.3781 22.3709C22.1058 21.9456 20.7938 21.4126 20.6702 22.4994L20.4974 24.0163C20.372 25.1006 19.5494 25.0753 18.9002 25.1024C14.4042 25.2908 12.8731 23.6246 10.609 21.1656C8.94966 18.8815 7.36614 16.5842 6.05396 13.8323C5.6612 13.0085 5.45316 12.4042 5.3999 11.7637C6.06014 11.2615 8.37761 11.4778 9.93362 11.4445C10.3592 11.4354 10.6464 11.6727 10.871 12.1453C11.7476 13.9898 12.7036 15.8011 13.9686 17.4026C14.5194 17.8965 15.0064 18.0781 15.2495 17.0739C15.3906 17.0613 15.3793 15.3984 15.3873 14.144C15.3928 13.2827 15.2888 12.2498 13.79 11.7732C14.0932 10.9997 15.2836 10.8121 16.4412 10.8004Z" fill="#999999"/>
</svg>
