<svg viewBox="0 0 36 36" fill="none" xmlns="http://www.w3.org/2000/svg">
<path d="M7.20429 28.8002L8.66444 23.4347C7.70231 21.7854 7.19683 19.9096 7.19997 18.0002C7.19997 12.0354 12.0351 7.2002 18 7.2002C23.9648 7.2002 28.8 12.0354 28.8 18.0002C28.8 23.965 23.9648 28.8002 18 28.8002C16.0914 28.8033 14.2164 28.2982 12.5676 27.3368L7.20429 28.8002ZM14.1022 12.9328C13.9628 12.9415 13.8265 12.9782 13.7016 13.0408C13.5844 13.1072 13.4775 13.1901 13.384 13.2871C13.2544 13.4091 13.181 13.515 13.1022 13.6176C12.703 14.137 12.4883 14.7747 12.492 15.4298C12.4941 15.959 12.6324 16.4741 12.8484 16.9558C13.2901 17.93 14.0169 18.9614 14.977 19.9172C15.2082 20.1472 15.4339 20.3783 15.6769 20.5933C16.8685 21.6424 18.2886 22.3991 19.8241 22.8029L20.4386 22.8969C20.6384 22.9077 20.8382 22.8926 21.0391 22.8829C21.3536 22.8666 21.6607 22.7815 21.9387 22.6334C22.0801 22.5605 22.2182 22.4813 22.3524 22.3958C22.3524 22.3958 22.3988 22.3655 22.4874 22.2986C22.6332 22.1906 22.7228 22.1139 22.8438 21.9875C22.9334 21.8947 23.0112 21.7856 23.0706 21.6614C23.1548 21.4853 23.239 21.1495 23.2736 20.8697C23.2995 20.6559 23.292 20.5393 23.2887 20.4669C23.2844 20.3513 23.1883 20.2315 23.0835 20.1807L22.455 19.8988C22.455 19.8988 21.5154 19.4895 20.9419 19.2281C20.8814 19.2018 20.8166 19.1868 20.7507 19.1839C20.6768 19.1763 20.6022 19.1846 20.5317 19.2083C20.4613 19.2319 20.3968 19.2704 20.3425 19.321V19.3189C20.3371 19.3189 20.2647 19.3804 19.4839 20.3265C19.4391 20.3867 19.3773 20.4322 19.3065 20.4572C19.2358 20.4823 19.1591 20.4856 19.0864 20.4669C19.0161 20.4481 18.9471 20.4243 18.8802 20.3956C18.7462 20.3395 18.6998 20.3179 18.608 20.2779L18.6026 20.2757C17.9847 20.006 17.4127 19.6416 16.907 19.1957C16.7709 19.0769 16.6446 18.9473 16.515 18.8221C16.0901 18.4152 15.7198 17.9548 15.4134 17.4526L15.3496 17.35C15.3039 17.2811 15.2669 17.2067 15.2395 17.1286C15.1984 16.9699 15.3054 16.8424 15.3054 16.8424C15.3054 16.8424 15.5678 16.5551 15.6898 16.3996C15.7915 16.2704 15.8863 16.1359 15.9739 15.9968C16.1013 15.7916 16.1413 15.581 16.0743 15.4179C15.7719 14.6792 15.4587 13.9437 15.1369 13.2136C15.0732 13.0689 14.8842 12.9652 14.7124 12.9447C14.6541 12.9382 14.5958 12.9318 14.5375 12.9274C14.3924 12.9202 14.2471 12.9227 14.1022 12.9328Z" fill="#999999"/>
</svg>
