<svg viewBox="0 0 80 80" fill="none" xmlns="http://www.w3.org/2000/svg">
<path d="M50.7289 6.80608C51.089 5.85155 52.1139 5.42268 53.0692 5.78237C53.9552 6.11436 54.4401 7.11041 54.0661 8.0649C53.706 9.0056 52.6815 9.44826 51.795 9.10244C50.8538 8.75658 50.3689 7.74674 50.7289 6.80608Z" fill="white"/>
<path d="M61.6682 11.6765C63.6344 9.65678 66.127 9.43541 68.0796 11.3168C69.5749 12.7693 69.8242 14.5677 68.9793 16.2416L67.5947 15.4807C68.1624 14.3879 68.0516 13.295 67.0823 12.3543C65.781 11.0816 64.2024 11.386 62.8175 12.797C61.433 14.2218 61.1697 15.7989 62.4851 17.0716C63.4543 18.0123 64.5624 18.0952 65.6285 17.5004L66.4314 18.8699C64.7837 19.7553 62.9839 19.5478 61.4882 18.0952C59.536 16.1862 59.702 13.6824 61.6682 11.6765Z" fill="white"/>
<path d="M73.8812 18.5933L75.6258 21.8995C75.709 22.0517 75.8474 22.3422 75.9166 22.5635C76.4291 24.0714 75.7506 25.2611 74.4349 25.9666C73.1196 26.6582 71.7346 26.5476 70.7933 25.2749C70.6549 25.0812 70.4885 24.8046 70.4057 24.6524L69.3672 22.688L66.5697 24.1682L65.8637 22.8263L73.8812 18.5933ZM71.6378 23.9331C71.721 24.0852 71.8318 24.2789 71.9563 24.4034C72.4827 24.9844 73.2028 24.8737 73.7148 24.597C74.2273 24.3204 74.7397 23.7947 74.5597 23.0339C74.5181 22.854 74.4213 22.6465 74.3381 22.4943L73.3272 20.5853L70.6133 22.0102L71.6378 23.9331Z" fill="white"/>
<path d="M74.1852 29.7139C76.9547 29.2436 79.1149 30.5163 79.5717 33.2C80.0285 35.8837 78.4224 37.8066 75.6529 38.2769C72.8834 38.7473 70.7236 37.4746 70.2664 34.7909C69.7955 32.1072 71.4021 30.1843 74.1852 29.7139ZM75.3761 36.6861C77.3287 36.3541 78.45 35.2335 78.1592 33.4352C77.8687 31.6368 76.4146 30.9728 74.4484 31.291C72.4958 31.623 71.3741 32.7297 71.6649 34.5418C71.9558 36.3402 73.4235 37.0181 75.3761 36.6861Z" fill="white"/>
<path d="M80 42.6363L79.7784 44.1442L75.6104 43.5355L79.2523 47.7271L78.9891 49.5671L75.1535 45.071L69.9746 48.5156L70.2519 46.6065L75.0011 43.4384L70.8055 42.8298L71.0271 41.3223L80 42.6363Z" fill="white"/>
<path d="M71.9829 55.8047C74.3368 57.3541 75.0428 59.7473 73.5475 62.0161C72.3982 63.7594 70.6812 64.3401 68.881 63.8421L69.3659 62.3342C70.5428 62.6803 71.6089 62.3758 72.343 61.2416C73.3399 59.7197 72.7442 58.2398 71.0965 57.1467C69.4351 56.0541 67.8425 56.1092 66.8316 57.6311C66.084 58.7653 66.2224 59.858 67.0117 60.7987L65.8207 61.8502C64.6438 60.4115 64.4914 58.5995 65.6407 56.8562C67.1365 54.5738 69.6287 54.2556 71.9829 55.8047Z" fill="white"/>
<path d="M63.3417 62.5003C62.6773 62.9567 62.6909 63.3856 63.3973 64.686C64.3802 66.5396 65.8896 68.6562 66.7069 69.7768L61.9432 73.5531L56.3075 66.4565L57.4984 65.5161L62.248 71.5057L64.7127 69.5554C64.0618 68.6146 62.8433 66.8577 61.9296 65.1149C61.0987 63.5378 60.7939 62.3756 62.5389 61.5044L63.3417 62.5003Z" fill="white"/>
<path d="M52.4444 70.8837L57.7065 75.9745L56.1004 76.5831L52.2508 72.6681L51.8908 78.1741L50.3814 78.7412L51.1707 68.7531L52.68 68.186L52.4444 70.8837Z" fill="white"/>
<path d="M43.0012 75.407L46.2415 79.7784L44.4413 79.82L41.5475 75.7807L41.6307 79.8756L40.1073 79.9031L40.0241 75.8083L37.3103 79.9583L35.4963 79.9998L38.5565 75.4902L35.0394 70.9389L36.9087 70.8974L40.0105 74.9506L39.9274 70.8282L41.4507 70.8007L41.5335 74.9231L44.4553 70.7315L46.3383 70.6899L43.0012 75.407Z" fill="white"/>
<path d="M30.234 78.8239L24.4875 76.8872L24.9445 75.5456L29.2509 76.9979L29.874 75.1443L27.7554 74.439C27.6031 74.3834 27.2985 74.2727 27.0769 74.176C25.6922 73.5258 25.3184 72.1426 25.7753 70.7729C26.2322 69.4173 27.3538 68.5181 28.8632 68.8502C29.0986 68.9054 29.3893 68.9885 29.5555 69.0437L33.1142 70.2334L30.234 78.8239ZM29.1816 70.4133C29.0155 70.3581 28.8078 70.3026 28.6278 70.275C27.8662 70.1783 27.4369 70.7038 27.2431 71.2569C27.063 71.8104 27.0769 72.4883 27.7416 72.8755C27.8939 72.9726 28.1016 73.0554 28.2678 73.1109L30.3171 73.8023L31.231 71.1051L29.1816 70.4133Z" fill="white"/>
<path d="M12.9969 69.555L11.806 68.6282L17.3864 61.49L18.5772 62.4172L12.9969 69.555ZM19.0618 74.2861L17.871 73.3457L19.8234 70.8554L18.0649 69.4858C17.9264 69.3751 17.691 69.1677 17.5248 69.0019C16.4447 67.8537 16.5694 66.484 17.4971 65.3083C18.4249 64.1325 19.7127 63.6757 21.0973 64.4366C21.305 64.5473 21.5682 64.7412 21.7066 64.8519L24.656 67.1619L19.0618 74.2861ZM20.8619 66.0001C20.7235 65.8894 20.5435 65.7647 20.3773 65.6815C19.6711 65.3774 19.048 65.7787 18.688 66.2351C18.328 66.6915 18.0925 67.3833 18.5633 67.9919C18.6741 68.1442 18.8403 68.2961 18.9787 68.3932L20.6819 69.7212L22.5651 67.3141L20.8619 66.0001Z" fill="white"/>
<path d="M12.3168 57.1608C11.8321 56.0817 10.5444 56.3031 9.04889 56.8287C7.58111 57.3406 6.27951 57.8386 4.52094 58.5024L2.11158 53.1075L9.09046 49.981L8.81351 49.3588L11.486 48.155L12.1091 49.5386L10.7244 50.1609L12.9814 55.1965L14.3661 54.5738L14.9892 55.9574L12.3168 57.1608ZM9.69971 51.3507L4.02245 53.896L5.24101 56.6488C6.47337 56.1785 7.37341 55.8188 8.68886 55.3764C9.97666 54.9475 10.5305 54.7813 11.3475 55.0027L9.69971 51.3507Z" fill="white"/>
<path d="M5.0889 47.3244C2.27795 47.5594 0.24245 46.1071 0.0208983 43.3954C-0.2145 40.6842 1.55791 38.9135 4.36883 38.6645C7.17977 38.4293 9.21525 39.8819 9.43683 42.5933C9.65837 45.3046 7.88596 47.089 5.0889 47.3244ZM4.49348 40.2693C2.51335 40.4352 1.30867 41.4587 1.44714 43.2711C1.5856 45.0971 2.98415 45.8717 4.96424 45.7198C6.94435 45.5535 8.14907 44.5436 8.01058 42.7176C7.87212 40.9056 6.47359 40.1031 4.49348 40.2693Z" fill="white"/>
<path d="M3.53787 28.3036L3.99483 30.2403L2.40242 29.7146L1.95932 27.7779L2.44396 26.3115L11.0568 29.1474L10.5721 30.6138L3.53787 28.3036Z" fill="white"/>
<path d="M9.76965 24.1949L7.33258 22.604C5.71251 21.5526 5.32479 19.7128 6.37713 18.0942C7.42951 16.4757 9.27117 16.0884 10.8912 17.1398L13.3422 18.7306C14.9622 19.7819 15.3499 21.6218 14.2976 23.2404C13.2314 24.8727 11.3897 25.26 9.76965 24.1949ZM12.5806 20.1001L9.94967 18.3848C9.14651 17.8591 8.09417 18.0804 7.56796 18.8828C7.04179 19.6851 7.26333 20.7226 8.06645 21.2621L10.6974 22.9775C11.5005 23.5032 12.539 23.2819 13.0652 22.4795C13.6053 21.6633 13.3837 20.612 12.5806 20.1001Z" fill="white"/>
<path d="M19.4612 14.9125C20.1813 14.539 20.209 14.1102 19.6551 12.7268C18.8935 10.7763 17.6473 8.49373 16.9688 7.27639L22.1337 4.08081L26.9109 11.7861L25.6231 12.5885L21.5937 6.08671L18.9212 7.74674C19.4612 8.75658 20.4721 10.6518 21.1644 12.4778C21.8152 14.1379 21.9675 15.3275 20.1397 15.9915L19.4612 14.9125Z" fill="white"/>
<path d="M27.2722 2.04693L32.9495 0.580566L33.3095 1.96393L29.1 3.04295L29.6539 5.20098L33.1295 4.3018L33.4895 5.68516L30.0139 6.58433L30.6509 9.06054L34.8604 7.98152L35.2204 9.36488L29.5431 10.8312L27.2722 2.04693Z" fill="white"/>
<path d="M40.1769 1.49403L37.2411 1.42486L37.2689 0L44.6629 0.179837L44.6353 1.6047L41.6858 1.5217L41.5058 9.15783L39.9828 9.11635L40.1769 1.49403Z" fill="white"/>
</svg>
