<svg width="45" height="11" viewBox="0 0 45 11" fill="none" xmlns="http://www.w3.org/2000/svg">
<path d="M26.1056 9.73774C26.1056 9.82734 26.1337 9.87799 26.1825 9.87799C26.222 9.87244 26.2595 9.85633 26.2913 9.83124L40.3162 0.375953C40.5532 0.203575 40.8371 0.114805 41.1263 0.122721H44.2087C44.6812 0.122721 45 0.449975 45 0.940855V7.05543C45 7.79564 44.8425 8.22419 44.2125 8.61573L40.4738 10.9532C40.4366 10.9801 40.3932 10.9962 40.3481 11C40.3031 11 40.2581 10.963 40.2581 10.8286V3.69329C40.2581 3.60953 40.2356 3.55499 40.1813 3.55499C40.1415 3.55959 40.1038 3.57579 40.0725 3.60174L29.8237 10.5189C29.5917 10.6829 29.3169 10.7693 29.0363 10.7662H22.2413C21.765 10.7662 21.45 10.439 21.45 9.94422V1.13175C21.45 1.06747 21.4219 1.00708 21.3675 1.00708C21.3285 1.01252 21.2916 1.02866 21.2606 1.05383L14.4975 5.26722C14.43 5.31397 14.4113 5.34709 14.4113 5.3802C14.4113 5.40747 14.4262 5.43669 14.4712 5.48734L19.3031 10.5033C19.3669 10.5695 19.4119 10.6202 19.4119 10.6766C19.4119 10.7234 19.3388 10.7604 19.2544 10.7604H14.8875C14.5444 10.7604 14.28 10.7098 14.0944 10.5169L11.1656 7.47813C11.1545 7.46432 11.1408 7.45303 11.1253 7.44498C11.1098 7.43694 11.0929 7.43231 11.0756 7.43138C11.0438 7.43324 11.0128 7.44328 10.9856 7.4606L6.09188 10.5189C5.85787 10.6822 5.58052 10.7653 5.29875 10.7565H0.796875C0.315 10.7604 0 10.4293 0 9.94032V3.94068C0 3.20046 0.1575 2.77192 0.79125 2.38233L4.55625 0.0311684C4.58547 0.0118887 4.61915 0.00112271 4.65375 0C4.71375 0 4.74375 0.0584389 4.74375 0.194794V8.22809C4.74375 8.31185 4.7625 8.35081 4.82063 8.35081C4.86105 8.34428 4.89952 8.32829 4.93313 8.30406L17.6381 0.35842C17.8844 0.186174 18.1778 0.101433 18.4744 0.116877H25.3144C25.7869 0.116877 26.1056 0.444131 26.1056 0.935011L26.1019 9.73579L26.1056 9.73774Z" fill="white"/>
</svg>
