<svg width="51" height="21" viewBox="0 0 51 21" fill="none" xmlns="http://www.w3.org/2000/svg">
<path d="M36.2015 17.7235H36.1866C35.904 17.791 35.6702 17.6265 35.7361 17.4979C35.9954 16.9075 36.3056 16.0642 36.3609 15.8449C36.618 14.9657 36.5224 14.3605 35.7383 13.7111C35.2708 13.3316 34.7459 12.969 34.272 12.6337C34.0489 12.4355 34.1764 12.2437 34.2465 12.1762C34.3825 12.0413 34.5525 11.9295 34.6843 11.8283C35.0668 11.5437 35.3026 11.5816 35.649 11.6175C36.1845 11.6892 36.7179 11.7672 37.2513 11.8599C37.7676 11.9654 37.8739 11.7777 37.9992 11.4193L38.301 10.5232C38.4859 10.0087 38.2372 9.89488 37.8547 9.88645L32.7696 9.69036C32.3404 9.66295 32.1683 9.79157 32.011 9.89699C31.246 10.4452 30.481 10.9892 29.7139 11.5352C29.3165 11.8009 29.4865 11.9822 29.5864 12.1636L30.0156 12.8614C30.3599 13.4181 30.2281 13.572 29.9285 13.8967C29.699 14.1286 29.4483 14.3395 29.1848 14.5271L29.0934 14.5904C28.3071 15.1428 27.4996 15.3916 26.8111 15.5075C25.1621 15.7331 23.613 15.7669 22.2466 15.7901C19.2107 15.8339 16.1751 15.6867 13.158 15.3494C13.0417 15.3344 12.9236 15.3569 12.8211 15.4134C12.7186 15.47 12.6371 15.5576 12.5885 15.6636L12.121 16.6756C12.0899 16.7417 12.0346 16.7937 11.9664 16.8211C11.8982 16.8485 11.8221 16.8492 11.7534 16.8232C7.39713 15.2861 4.6495 13.028 4.6495 10.5127C4.6495 7.03584 9.89188 4.0503 17.3719 2.7747C17.5249 2.74518 17.612 2.80633 17.6481 2.83795C17.8118 2.975 17.9775 3.11205 18.1369 3.25542C18.241 3.34398 18.2176 3.43464 18.1943 3.50843L13.5575 13.5572C13.4215 13.8988 13.7169 14.0063 13.8189 14.0063C16.5495 14.1455 19.2291 14.097 21.6707 13.8587C24.3482 13.6247 26.0312 13.0512 28.1095 11.7883C29.708 10.8116 31.2251 9.70957 32.6464 8.49277C33.4369 7.79066 33.8449 7.3985 34.357 6.76175C35.2516 5.61898 35.428 4.48464 34.7246 3.20271C34.6481 3.0256 34.8521 3.00241 34.9286 3.01295C41.7159 4.39819 46.3696 7.23825 46.3696 10.5127C46.3696 13.5762 42.2896 16.2581 36.2015 17.7235ZM19.4119 4.42349C19.5883 4.59639 19.7179 4.73133 19.8836 4.90422C20.3193 5.39548 20.6656 5.83825 20.6401 6.67952C20.6274 7.21506 20.3702 7.86446 20.0069 8.49277C19.6456 9.13374 19.2142 9.73464 18.7276 10.2849C18.0157 11.1283 17.289 11.4952 16.3264 11.7377C16.1521 11.7714 16.1203 11.6238 16.1564 11.5331L19.1569 4.47199C19.244 4.31807 19.3736 4.38976 19.4119 4.42349ZM25.5871 3.80572C25.3554 3.17887 24.9917 2.60818 24.5204 2.13163C24.4724 2.08544 24.4283 2.03536 24.3886 1.98193C24.3589 1.93133 24.3036 1.83855 24.3674 1.75633C24.4524 1.65934 24.5608 1.70361 24.599 1.7247C24.8838 1.85964 25.857 2.40361 26.3797 3.7994C26.8026 4.9253 26.5285 6.04277 25.4639 7.53344C24.0677 9.48585 22.865 10.9554 20.0961 12.0602C18.887 12.5452 16.9086 12.7244 15.9524 12.7244C15.6209 12.7286 15.4318 12.6886 15.3765 12.5642C15.3631 12.5401 15.3565 12.513 15.3572 12.4856C15.358 12.4581 15.3661 12.4314 15.3807 12.4081C15.47 12.2901 15.6039 12.309 15.7207 12.309C16.7981 12.309 18.7361 11.9443 19.8985 11.4045C22.3423 10.2681 23.562 8.75211 24.6011 7.29729C25.3024 6.32108 26.0419 5.04127 25.5871 3.80572ZM29.9221 4.16416C29.8329 3.53795 29.4036 2.99398 29.121 2.63343L28.8979 2.3488C28.8256 2.26446 28.7449 2.16958 28.8341 2.0747C28.9765 1.93132 29.2017 2.10211 29.2485 2.13163C29.716 2.44368 30.5299 3.14789 30.7424 4.3497C30.923 5.34277 30.7594 6.79126 27.8949 9.18012C27.7397 9.30663 27.5846 9.44157 27.421 9.58494C26.2225 10.6181 24.7329 11.9063 21.4455 12.9795C20.3065 13.3485 18.1496 13.6184 16.3157 13.6184C15.9821 13.6184 15.6761 13.6078 15.402 13.5889C15.096 13.5678 15.0046 13.4624 14.9813 13.378C14.9744 13.3553 14.9729 13.3312 14.977 13.3078C14.981 13.2844 14.9905 13.2623 15.0046 13.2431C15.0471 13.1883 15.1321 13.1545 15.2384 13.1524C18.3026 13.0892 19.3609 12.8994 21.1947 12.3175C23.9254 11.4488 25.9122 9.84428 27.3339 8.54337C30.1771 5.94367 30.0093 4.78614 29.9221 4.16416ZM25.5 0C11.4155 0 0 4.6997 0 10.5C0 16.2982 11.4155 21 25.5 21C39.5845 21 51 16.2982 51 10.5C51 4.70181 39.5845 0 25.5 0Z" fill="white"/>
</svg>
