<svg width="47" height="40" viewBox="0 0 47 40" fill="none" xmlns="http://www.w3.org/2000/svg">
<path d="M40.2947 25.8865L40.2751 25.9422C37.833 33.1992 31.1003 38.0657 23.5098 38.0657C15.9193 38.0657 9.17479 33.1892 6.74254 25.9343L6.72296 25.8765H1.39042V26.5319L3.60921 26.7968C4.98004 26.9562 5.26792 27.5737 5.64196 28.3506L5.73596 28.5418C8.94371 35.504 15.9271 40 23.5176 40C31.1101 40 38.0935 35.504 41.3013 28.5518L41.3953 28.3625C41.7673 27.5857 42.0572 26.9681 43.428 26.8068L45.6487 26.5398V25.8865H40.2947ZM6.74254 14.0478C9.18458 6.79084 15.9193 1.91633 23.5098 1.91633C31.1003 1.91633 37.8428 6.79084 40.277 14.0478L40.2966 14.1036H45.639V13.4502L43.4182 13.1853C42.0474 13.0239 41.7595 12.4084 41.3855 11.6295L41.2934 11.4382C38.0857 4.49602 31.0983 0 23.5098 0C15.9095 0 8.93392 4.49602 5.72617 11.4582L5.63217 11.6474C5.26008 12.4243 4.97025 13.0418 3.59942 13.2032L1.38062 13.4681V14.1235H6.71512L6.74254 14.0478ZM33.889 17.2072L30.4756 22.7749H31.9482L32.5553 21.7789H36.5366L37.1437 22.7749H38.6066L35.1932 17.2072H33.889ZM35.9119 20.7251H33.18L34.5509 18.4861L35.9119 20.7251ZM41.4148 18.6016L45.4705 22.7749H47V17.2072H45.7976V21.3606L41.7595 17.2072H40.2026V22.7749H41.4148V18.6016ZM0 22.7749H1.21221V18.6016L5.27771 22.7749H6.80717V17.2072H5.59496V21.3606L1.55688 17.2072H0V22.7749ZM9.48421 17.2072H10.6964V22.7749H9.48225L9.48421 17.2072ZM18.2693 21.5976C18.2301 21.6076 18.0813 21.6076 18.0265 21.6076H13.205V22.747H18.1009C18.1381 22.747 18.4279 22.747 18.4827 22.737C19.4815 22.6414 19.9378 21.7968 19.9378 21.0578C19.9378 20.2988 19.4619 19.4841 18.5572 19.3984C18.3809 19.3785 18.2321 19.3785 18.1655 19.3785H14.9675C14.8487 19.3824 14.7299 19.373 14.6131 19.3506C14.3605 19.2829 14.2684 19.0558 14.2684 18.8665C14.2684 18.6952 14.3605 18.4681 14.6209 18.3924C14.7316 18.3686 14.8448 18.3592 14.9578 18.3645H19.5735V17.245H14.8833C14.6875 17.245 14.5387 17.253 14.4173 17.2729C14.0352 17.3207 13.6843 17.5114 13.4328 17.8078C13.1812 18.1041 13.047 18.4851 13.0562 18.8765C13.0562 19.5598 13.4753 20.3566 14.3977 20.49C14.5661 20.508 14.7991 20.508 14.9029 20.508H18.0167C18.0735 20.508 18.2125 20.508 18.2399 20.5179C18.5944 20.5637 18.7158 20.8307 18.7158 21.0677C18.7188 21.1965 18.6748 21.3219 18.5924 21.4197C18.51 21.5176 18.3949 21.5809 18.2693 21.5976ZM27.3893 21.5976C27.3501 21.6076 27.2013 21.6076 27.1366 21.6076H22.325V22.747H27.2208C27.258 22.747 27.5479 22.747 27.6027 22.737C28.6015 22.6414 29.0578 21.7968 29.0578 21.0578C29.0578 20.2988 28.5819 19.4841 27.6771 19.3984C27.5009 19.3785 27.352 19.3785 27.2855 19.3785H24.0875C23.9687 19.3824 23.8498 19.373 23.733 19.3506C23.4804 19.2829 23.3884 19.0558 23.3884 18.8665C23.3884 18.6952 23.4804 18.4681 23.7409 18.3924C23.8515 18.3686 23.9647 18.3592 24.0777 18.3645H28.6935V17.245H24.0033C23.8075 17.245 23.6586 17.253 23.5372 17.2729C23.1552 17.3207 22.8043 17.5114 22.5527 17.8078C22.3012 18.1041 22.167 18.4851 22.1762 18.8765C22.1762 19.5598 22.5953 20.3566 23.5196 20.49C23.686 20.508 23.9191 20.508 24.0229 20.508H27.1366C27.1934 20.508 27.3325 20.508 27.3599 20.5179C27.7143 20.5637 27.8358 20.8307 27.8358 21.0677C27.8366 21.196 27.7919 21.3202 27.7099 21.4176C27.6278 21.5149 27.514 21.5789 27.3893 21.5976Z" fill="white"/>
</svg>
