<svg width="46" height="23" viewBox="0 0 46 23" fill="none" xmlns="http://www.w3.org/2000/svg">
<path d="M22.9981 23C35.6998 23 46 17.8517 46 11.5019C46 5.14833 35.6998 0 22.9981 0C10.3002 0 0 5.14833 0 11.5019C0 17.8517 10.3002 23 22.9981 23ZM27.3297 17.3576C26.9464 18.226 26.2852 20.0787 24.7691 20.8198C24.3091 21.0425 23.7398 21.1454 23.2358 21.166H23C18.7565 21.166 14.8043 20.5858 11.4962 19.6052L11.3697 19.5584C11.063 19.4592 10.9097 19.3207 10.9097 19.1504C10.9097 19.0026 10.9921 18.8884 11.0994 18.7855L11.3083 18.604C12.075 17.9827 14.3712 16.3583 18.7028 14.7357C20.2227 14.1724 22.126 13.465 24.1174 13.0514C25.2827 12.8156 29.6163 12.1662 27.3297 17.3576ZM38.9467 5.76591C39.0291 5.62742 39.1383 5.50952 39.3358 5.50016C39.4431 5.48893 39.5887 5.51326 39.8111 5.64988C42.5117 7.27242 44.114 9.30293 44.114 11.4981C44.114 15.4618 38.893 18.8716 31.4257 20.3594C30.9503 20.453 30.6283 20.4492 30.5229 20.3313C30.4463 20.2602 30.4271 20.133 30.5229 19.9757C30.579 19.8784 30.6458 19.7875 30.7222 19.7044C34.7856 15.0258 37.8829 8.12205 38.7627 6.13084C38.8298 5.99235 38.893 5.85574 38.9467 5.76591ZM18.7393 5.61806C19.1226 4.75159 19.7838 2.89699 21.298 2.16338C21.758 1.93881 22.3272 1.83027 22.8313 1.81717C22.9482 1.81343 23.0307 1.81717 23.0613 1.81717C27.3106 1.81717 31.257 2.38983 34.569 3.37608C34.5939 3.38731 34.6706 3.41351 34.6955 3.42286C35.0022 3.52392 35.1555 3.66054 35.1555 3.83084C35.1555 3.97868 35.075 4.08723 34.9677 4.19203C34.8998 4.25454 34.8295 4.31447 34.7568 4.37168C33.9959 4.99862 31.694 6.61928 27.3623 8.24182C25.8386 8.81074 23.9392 9.51253 21.9535 9.92425C20.7843 10.1675 16.4527 10.8094 18.7393 5.61806ZM14.5667 2.63686C15.0458 2.54703 15.3621 2.54703 15.479 2.66493C15.5461 2.73979 15.5653 2.8633 15.4752 3.0205C15.4179 3.1153 15.3511 3.20432 15.2758 3.28625C11.2125 7.97046 8.11325 14.8686 7.22967 16.8654C7.17422 16.9898 7.11282 17.1116 7.04567 17.2304C6.969 17.367 6.85592 17.4849 6.66233 17.4961C6.555 17.5055 6.40358 17.4755 6.18125 17.3445C3.48258 15.722 1.87833 13.6933 1.87833 11.4981C1.87833 7.53442 7.09933 4.12465 14.5667 2.63686Z" fill="white"/>
</svg>
