<svg width="30" height="30" viewBox="0 0 30 30" fill="none" xmlns="http://www.w3.org/2000/svg">
<path d="M15 0C6.7 0 0 6.7 0 15C0 23.3 6.7 30 15 30C23.3 30 30 23.3 30 15C30 6.7 23.3 0 15 0ZM15 1.7625C16.5 1.7625 17.95 2.0375 19.2875 2.5L15.1625 11.4125C15.1125 11.4625 15.1125 11.575 15 11.575C14.8875 11.575 14.8875 11.4625 14.8375 11.4125L10.7125 2.5C12.05 2.0375 13.5 1.775 15 1.775V1.7625ZM8.625 3.425L13.4 13.7125C13.5 13.925 13.6125 13.9875 13.75 13.9875H16.25C16.4 13.9875 16.5 13.925 16.6125 13.7125L21.325 3.425C23.3 4.55 25 6.1625 26.2 8.0875L19.5 21.05C19.45 21.1625 19.375 21.2125 19.3375 21.2125C19.2375 21.2125 19.2375 21.1125 19.175 21.05L16.6125 15.375C16.5 15.1625 16.4 15.1125 16.25 15.1125H13.75C13.6125 15.1125 13.5 15.1625 13.3875 15.375L10.825 21.05C10.7625 21.1125 10.775 21.2125 10.6625 21.2125C10.55 21.2125 10.55 21.1125 10.5 21.05L3.75 8.0875C4.925 6.1625 6.65 4.55 8.625 3.425ZM2.575 10.6625L10.2875 25.6625C10.3875 25.875 10.5 26.0375 10.775 26.0375C11.0375 26.0375 11.1375 25.875 11.25 25.6625L14.8375 17.675C14.8875 17.575 14.95 17.5 15 17.5C15.1125 17.5 15.1125 17.625 15.1625 17.675L18.8 25.6625C18.9125 25.875 19.0125 26.0375 19.2875 26.0375C19.55 26.0375 19.6625 25.875 19.7625 25.6625L27.5 10.6625C27.9625 12 28.2375 13.45 28.2375 15C28.175 22.2375 22.2375 28.2375 15 28.2375C7.7625 28.2375 1.825 22.2375 1.825 15C1.825 13.5 2.0875 12.0625 2.575 10.6625Z" fill="white"/>
</svg>
