<svg viewBox="0 0 120 20" fill="none" xmlns="http://www.w3.org/2000/svg">
<path d="M70.6719 9.82361V6.56113L85.8006 6.56113V9.82361H80.2086V19.9962H76.264V9.82361H70.6719Z" fill="#262626"/>
<path d="M87.3193 19.9816V6.57562L102.495 6.57562V9.80178H91.2532V11.7091H99.9823V14.8336H91.2532V16.7664H102.441V19.9816H87.3193Z" fill="#262626"/>
<path d="M116.091 15.1133C115.912 15.3967 115.686 15.6547 115.406 15.8872C114.62 16.5375 113.518 16.8609 112.1 16.8609C110.682 16.8609 109.581 16.5375 108.794 15.8872C108.008 15.2369 107.617 14.3686 107.617 13.2787C107.617 12.1887 108.008 11.3204 108.794 10.6701C109.581 10.0198 110.679 9.69646 112.1 9.69646C113.518 9.69646 114.62 10.0198 115.406 10.6701C115.682 10.899 115.908 11.1569 116.088 11.4403H120C119.691 10.1906 119.049 9.15513 118.066 8.34133C116.637 7.15332 114.649 6.56113 112.104 6.56113C109.559 6.56113 107.571 7.15695 106.142 8.34133C104.713 9.52934 103.996 11.1751 103.996 13.2787C103.996 15.3822 104.71 17.028 106.142 18.216C107.571 19.404 109.559 19.9962 112.104 19.9962C114.649 19.9962 116.637 19.4004 118.066 18.216C119.049 17.3985 119.695 16.3668 120 15.1133L116.091 15.1133Z" fill="#262626"/>
<path d="M43.4983 7.22313C45.8277 7.22313 47.6475 7.75719 48.9576 8.82894C50.2676 9.9007 50.9209 11.383 50.9209 13.2794C50.9209 15.1759 50.2676 16.6582 48.9576 17.7299C47.6475 18.8017 45.8277 19.3358 43.4983 19.3358C41.1689 19.3358 39.3491 18.8017 38.039 17.7299C36.7289 16.6582 36.0757 15.1759 36.0757 13.2794C36.0757 11.383 36.7289 9.9007 38.039 8.82894C39.3491 7.76082 41.1689 7.22313 43.4983 7.22313ZM43.4983 6.58008C41.0396 6.58008 39.0727 7.165 37.6621 8.32395C36.2013 9.51922 35.4619 11.1868 35.4619 13.2831C35.4619 15.3794 36.2013 17.0469 37.6621 18.2422C39.0763 19.3975 41.0396 19.9861 43.4983 19.9861C45.9569 19.9861 47.9239 19.4011 49.3344 18.2422C50.7953 17.0469 51.5347 15.3794 51.5347 13.2831C51.5347 11.1868 50.7953 9.51922 49.3344 8.32395C47.9239 7.165 45.9569 6.58008 43.4983 6.58008Z" fill="#0049FF"/>
<path d="M69.1012 6.57199V19.9852H62.2242L57.5509 10.4267V19.9852H53.0356V19.3422H56.9156V9.80178H57.9565L62.619 19.3422H68.4659V7.21868H65.5155V16.7664H64.4782L59.8122 7.21868H53.0356V6.57199H60.207L64.8802 16.1342V6.57199H69.1012Z" fill="#0049FF"/>
<path d="M14.716 13.0427C15.6672 12.4323 16.2953 11.2298 16.2953 10.0127C16.2953 8.11989 14.7734 6.57947 12.9034 6.57947L4.0128 6.57947V0L3.69695 0C1.65824 0 0 1.67847 0 3.74205L0 16.2543C0 16.2543 0 16.2543 0 16.2579C0 16.2906 0 16.327 0 16.3633C0.053839 18.3688 1.7408 20 3.76514 20H14.3535C16.2881 20 17.8602 18.4087 17.8602 16.4505C17.8602 14.6122 16.4783 13.228 14.716 13.0427ZM3.3775 0.661217L3.3775 6.51408C1.83771 6.35422 0.63889 5.3406 0.63889 3.74205C0.63889 2.14351 1.83771 0.824705 3.3775 0.661217ZM0.63889 5.58038C1.24548 6.48865 2.2397 7.06267 3.3775 7.1644L3.3775 12.5304C2.49095 12.6067 1.6726 12.9955 1.04807 13.6494C0.893728 13.8093 0.757336 13.9764 0.63889 14.158L0.63889 5.58038ZM14.3535 19.3497H3.76514C2.08536 19.3497 0.681961 18.0018 0.63889 16.3415C0.63889 16.3124 0.63889 16.2834 0.63889 16.2543C0.63889 15.4405 0.943978 14.6776 1.5039 14.0963C2.08536 13.4896 2.86424 13.1589 3.69695 13.1589H4.01639L4.01639 7.22616L12.907 7.22616C14.4253 7.22616 15.66 8.47593 15.66 10.0127C15.66 11.5495 14.4289 12.9301 12.9106 12.9301V13.6094L14.3571 13.6676C15.7138 13.6094 17.2285 14.8411 17.2285 16.4432C17.2249 18.049 15.9364 19.3497 14.3535 19.3497Z" fill="#0049FF"/>
<path d="M19.4032 19.9925L19.4032 19.3458L23.1397 19.3386V14.819H25.9393L30.0669 19.3422H33.8895L29.3634 14.8336L30.0131 14.7464C32.4323 14.4267 33.6095 13.2496 33.6095 11.146C33.6095 9.82358 33.1681 8.86445 32.26 8.21777C31.3268 7.55655 30.1244 7.21868 28.6851 7.21868L17.8706 7.21868V6.57199L28.6815 6.57199C30.2536 6.57199 31.5816 6.9462 32.6225 7.68734C33.6993 8.45392 34.2448 9.6165 34.2448 11.1424C34.2448 13.3985 33.0604 14.79 30.7202 15.2768L35.4437 19.9816H29.787L25.6593 15.4585H23.775V19.9816L19.4032 19.9925Z" fill="#0049FF"/>
</svg>
