<svg width="20" height="20" viewBox="0 0 20 20" fill="none" xmlns="http://www.w3.org/2000/svg">
<path d="M7.65355 3.07452C8.01194 2.95905 8.39653 2.97823 8.7433 3.12888C9.09007 3.27952 9.37809 3.55254 9.55943 3.90248L9.62086 4.03289L10.1622 5.32035C10.3268 5.71112 10.3802 6.14497 10.3158 6.56793C10.2515 6.99088 10.0722 7.38429 9.80022 7.69921L9.69211 7.81474L8.83705 8.66633C8.68307 8.82212 8.79855 9.42516 9.35631 10.4562C9.85674 11.3839 10.2654 11.8171 10.4653 11.8408H10.5005L10.5439 11.832L12.2229 11.2833C12.4486 11.2093 12.6894 11.2064 12.9165 11.2748C13.1437 11.3433 13.3476 11.4802 13.5039 11.6692L13.5792 11.7699L14.6898 13.4153C14.9078 13.7377 15.0164 14.1298 14.998 14.5271C14.9795 14.9243 14.835 15.303 14.5883 15.6007L14.4883 15.711L14.0436 16.1609C13.645 16.5643 13.1463 16.8369 12.607 16.9463C12.0676 17.0557 11.5101 16.9972 11.0009 16.7779C9.4161 16.0952 7.97625 14.5356 6.66826 12.1147C5.35781 9.68772 4.81315 7.5723 5.05641 5.76059C5.13009 5.21283 5.34125 4.69663 5.66745 4.26683C5.99365 3.83704 6.42271 3.50969 6.90905 3.31958L7.06712 3.26357L7.65355 3.07452Z" fill="#262626"/>
</svg>
