<svg viewBox="0 0 10 14" fill="none" xmlns="http://www.w3.org/2000/svg">
<path d="M2.65355 0.0745191C3.01194 -0.0409521 3.39653 -0.0217685 3.7433 0.128877C4.09007 0.279522 4.37809 0.55254 4.55943 0.902482L4.62086 1.03289L5.16224 2.32035C5.32679 2.71112 5.3802 3.14497 5.31583 3.56793C5.25147 3.99088 5.07217 4.38429 4.80022 4.69921L4.69211 4.81474L3.83705 5.66633C3.68307 5.82212 3.79855 6.42516 4.35631 7.45617C4.85674 8.38391 5.26543 8.81715 5.46528 8.84078H5.50049L5.5439 8.83202L7.22291 8.28326C7.44856 8.20931 7.68937 8.20638 7.91654 8.27483C8.14371 8.34328 8.34762 8.4802 8.50388 8.66923L8.57923 8.76988L9.68983 10.4153C9.90776 10.7377 10.0164 11.1298 9.99798 11.5271C9.97952 11.9243 9.83502 12.303 9.58827 12.6007L9.48835 12.711L9.04362 13.1609C8.64499 13.5643 8.14634 13.8369 7.60696 13.9463C7.06757 14.0557 6.51013 13.9972 6.00092 13.7779C4.4161 13.0952 2.97625 11.5356 1.66826 9.11472C0.357809 6.68772 -0.186845 4.5723 0.0564063 2.76059C0.130087 2.21283 0.341246 1.69663 0.667449 1.26683C0.993651 0.837036 1.42271 0.509693 1.90905 0.319582L2.06712 0.263568L2.65355 0.0745191Z" fill="#0049FF"/>
</svg>
